# xmcd
#
# Track frame offsets:
# 150
# 13637
# 30860
# 46308
# 64418
# 79325
# 95786
# 110372
# 125673
# 142243
# 154107
# 167740
# 179357
# 193359
# 210878
# 224801
#
# Disc length: 3152 seconds
#
#
# Revision: 2
# Processed by: cddbd v1.5.1PL2 Copyright (c) Steve Scherf et al.
# Submitted via: FreeRIP 2.942 
#
DISCID=ef0c4e10
DTITLE=Garrafão - Eu Também Vou!
DYEAR=2005
DGENRE=Other
TTITLE0=Eu Também Vou
TTITLE1=Coração
TTITLE2=Tum Tum Bateu
TTITLE3=Fom Fom Do Garrafão
TTITLE4=Me Dá Um Beijo
TTITLE5=Te Dei (The End)
TTITLE6=Menininha, Meu Amor
TTITLE7=Jogue As Mãos
TTITLE8=Pequenininha
TTITLE9=Sonho De Paixão
TTITLE10=O Gemidinho
TTITLE11=Minas E Manos
TTITLE12=Carimbó Do Macaco
TTITLE13=Balanço Bom
TTITLE14=O Garrafão (Bônus)
TTITLE15=Dodói De Amor (Part. Esp. Teodoro and Sampaio) (Bônus)
EXTD=
EXTT0=
EXTT1=
EXTT2=
EXTT3=
EXTT4=
EXTT5=
EXTT6=
EXTT7=
EXTT8=
EXTT9=
EXTT10=
EXTT11=
EXTT12=
EXTT13=
EXTT14=
EXTT15=
PLAYORDER=
